<svg xmlns="http://www.w3.org/2000/svg" width="400" height="600" viewBox="0 0 400 600"><rect width="100%" height="100%" fill="#6a0dad"/><path fill="#ffffff" d="M94.97 289.555h2.44v17.35h-2.84v-11.21q0-.67.07-1.45l-5.25 9.85q-.37.71-1.14.71h-.45q-.77 0-1.14-.71l-5.31-9.89q.04.4.06.78.03.39.03.71v11.21h-2.85v-17.35h2.44q.22 0 .37.01.16.01.28.06.13.05.23.16.1.1.2.28l5.2 9.64q.2.38.37.79.18.41.35.84.16-.44.34-.86.18-.41.39-.79l5.12-9.62q.1-.18.21-.28.1-.11.23-.16t.28-.06q.16-.01.37-.01m11.28 4.85q1.37 0 2.49.44 1.13.44 1.92 1.26.8.82 1.23 1.99.44 1.18.44 2.63 0 1.46-.44 2.64-.43 1.18-1.23 2-.79.83-1.92 1.28-1.12.44-2.49.44-1.38 0-2.5-.44-1.13-.45-1.93-1.28-.8-.82-1.24-2-.43-1.18-.43-2.64 0-1.45.43-2.63.44-1.17 1.24-1.99t1.93-1.26q1.12-.44 2.5-.44m0 10.4q1.54 0 2.28-1.03t.74-3.03q0-1.99-.74-3.03-.74-1.05-2.28-1.05-1.56 0-2.31 1.05t-.75 3.03.75 3.02 2.31 1.04m11.31-6.61v5.52q.5.61 1.1.86.59.25 1.25.25.68 0 1.23-.24.55-.25.93-.77t.59-1.33q.2-.81.2-1.94 0-2.03-.67-2.93-.67-.91-1.93-.91-.85 0-1.49.39t-1.21 1.1m0-9.12v7.03q.74-.78 1.65-1.24.9-.46 2.07-.46 1.07 0 1.92.42.86.42 1.47 1.2.6.79.93 1.9.32 1.12.32 2.51 0 1.5-.37 2.73-.37 1.22-1.06 2.09t-1.66 1.35q-.98.48-2.16.48-.58 0-1.05-.11-.47-.12-.86-.32-.4-.21-.73-.5t-.63-.65l-.13.82q-.07.32-.25.45-.17.13-.47.13h-1.96v-17.83zm10.75 5.52h2.98v12.31h-2.98zm3.38-3.59q0 .38-.15.72-.16.34-.42.59-.25.25-.6.4t-.75.15q-.38 0-.72-.15t-.6-.4q-.25-.25-.4-.59t-.15-.72q0-.4.15-.74.15-.35.4-.6.26-.26.6-.41t.72-.15q.4 0 .75.15t.6.41q.26.25.42.6.15.34.15.74m2.66-1.93h2.96v17.83h-2.96zm8.26 10.26h5.6q0-.58-.17-1.09-.16-.51-.48-.89-.33-.39-.82-.61-.5-.22-1.16-.22-1.29 0-2.02.73-.74.73-.95 2.08m7.56 1.79h-7.62q.08.94.34 1.63t.7 1.14q.43.45 1.02.68.6.22 1.32.22t1.24-.17.91-.37q.39-.21.68-.37.3-.17.57-.17.38 0 .56.27l.85 1.08q-.49.58-1.11.97-.61.39-1.27.62-.67.24-1.36.33-.69.1-1.34.1-1.28 0-2.39-.43-1.1-.42-1.92-1.26-.81-.83-1.28-2.06t-.47-2.85q0-1.26.41-2.37t1.17-1.93 1.86-1.3 2.48-.48q1.16 0 2.15.37.98.37 1.69 1.08.71.72 1.11 1.76.4 1.03.4 2.37 0 .67-.14.9-.15.24-.56.24m12.87-.77h5.52l-2.11-5.77q-.16-.39-.33-.92-.17-.52-.33-1.14-.16.62-.33 1.15t-.32.93zm4.4-10.8 6.82 17.35h-2.5q-.42 0-.68-.21-.27-.21-.4-.52l-1.29-3.54h-7.19l-1.3 3.54q-.09.27-.37.5t-.68.23h-2.52l6.82-17.35zm11.11 8.64v5.52q.51.61 1.1.86.6.25 1.29.25.67 0 1.21-.25t.92-.77q.38-.51.58-1.3.21-.78.21-1.85 0-1.08-.18-1.83-.17-.75-.49-1.22-.33-.47-.79-.68-.46-.22-1.05-.22-.92 0-1.57.39t-1.23 1.1m-.39-3.06.24 1.14q.75-.85 1.71-1.38t2.26-.53q1.01 0 1.84.42.84.42 1.44 1.22.61.8.94 1.97t.33 2.68q0 1.38-.37 2.55-.38 1.18-1.07 2.04-.69.87-1.66 1.35-.98.49-2.19.49-1.04 0-1.77-.32t-1.31-.88v5.04h-2.96v-16.33h1.81q.58 0 .76.54m14.03 3.06v5.52q.5.61 1.09.86.6.25 1.29.25.68 0 1.22-.25t.91-.77q.38-.51.59-1.3.2-.78.2-1.85 0-1.08-.17-1.83-.18-.75-.5-1.22-.33-.47-.79-.68-.46-.22-1.05-.22-.92 0-1.57.39t-1.22 1.1m-.4-3.06.24 1.14q.76-.85 1.72-1.38t2.25-.53q1.01 0 1.84.42.84.42 1.44 1.22.61.8.94 1.97t.33 2.68q0 1.38-.37 2.55-.37 1.18-1.06 2.04-.69.87-1.67 1.35-.98.49-2.19.49-1.03 0-1.77-.32-.73-.32-1.3-.88v5.04h-2.97v-16.33h1.81q.58 0 .76.54m20.6-5.58v17.35h-3.24v-17.35zm3.45-.48h2.96v17.83h-2.96zm5.96 0h2.97v17.83h-2.97zm13.57 5.52h2.97v12.31h-1.81q-.59 0-.75-.54l-.2-.98q-.76.76-1.67 1.24-.91.47-2.15.47-1.01 0-1.78-.34t-1.3-.97q-.53-.62-.8-1.48t-.27-1.89v-7.82h2.96v7.82q0 1.13.53 1.75.52.62 1.56.62.77 0 1.44-.35.67-.34 1.27-.94zm14.08 1.33-.67 1.07q-.12.19-.25.27-.14.08-.34.08-.22 0-.46-.12-.25-.12-.57-.27-.33-.15-.74-.27t-.98-.12q-.87 0-1.37.37t-.5.97q0 .4.26.67t.68.47q.43.2.97.37.54.16 1.1.35.55.19 1.09.44.54.24.97.62t.68.91q.26.53.26 1.27 0 .89-.32 1.64-.31.75-.94 1.29-.62.55-1.54.86-.92.3-2.12.3-.63 0-1.24-.11-.61-.12-1.16-.32-.56-.2-1.04-.48-.47-.28-.83-.6l.68-1.13q.14-.2.32-.31t.45-.11q.28 0 .52.16.25.15.57.33.33.18.77.34.43.16 1.11.16.52 0 .9-.13t.63-.33q.24-.2.36-.47.11-.27.11-.56 0-.43-.26-.71t-.68-.48q-.43-.2-.97-.37-.55-.16-1.12-.35t-1.12-.45q-.54-.26-.97-.65-.42-.4-.68-.98-.26-.57-.26-1.39 0-.75.3-1.44.3-.68.88-1.19t1.45-.82q.87-.3 2.01-.3 1.28 0 2.32.42t1.74 1.1m6.47 11.17q-1.61 0-2.47-.9-.86-.91-.86-2.51v-6.87h-1.26q-.24 0-.4-.16-.17-.15-.17-.47v-1.17l1.98-.33.62-3.36q.06-.24.23-.37t.43-.13h1.54v3.88h3.29v2.11h-3.29v6.67q0 .58.28.9t.77.32q.28 0 .47-.06.18-.07.32-.14t.25-.14q.1-.06.21-.06.13 0 .22.06.08.07.18.2l.89 1.44q-.65.54-1.49.82-.84.27-1.74.27m7.44-11.76.18 1.39q.57-1.1 1.37-1.73.79-.63 1.87-.63.85 0 1.37.37l-.2 2.22q-.06.22-.17.31t-.31.09q-.18 0-.53-.06t-.69-.06q-.49 0-.88.14-.38.15-.69.42-.3.27-.54.65-.23.38-.43.88v7.58h-2.97v-12.31h1.74q.46 0 .64.16t.24.58m12.84 8.39v-2.08q-1.29.06-2.16.23-.88.16-1.41.41-.52.25-.75.59-.23.33-.23.73 0 .78.46 1.12.46.33 1.21.33.91 0 1.58-.33.66-.33 1.3-1m-6.27-6.47-.52-.95q2.12-1.94 5.11-1.94 1.08 0 1.93.35.85.36 1.44.99t.89 1.5q.31.88.31 1.92v7.78h-1.34q-.42 0-.65-.13-.23-.12-.36-.51l-.27-.88q-.46.42-.91.73-.44.32-.92.54-.48.21-1.03.33-.54.11-1.2.11-.78 0-1.44-.21t-1.14-.63-.75-1.04q-.26-.63-.26-1.45 0-.47.15-.93.16-.47.51-.89.36-.42.92-.79.57-.37 1.39-.65.82-.27 1.91-.45 1.09-.17 2.5-.21v-.72q0-1.23-.53-1.83-.53-.59-1.52-.59-.72 0-1.2.17-.47.17-.83.38t-.66.37q-.29.17-.65.17-.31 0-.53-.16-.21-.16-.35-.38m16.05 9.84q-1.61 0-2.47-.9-.86-.91-.86-2.51v-6.87h-1.26q-.24 0-.4-.16-.17-.15-.17-.47v-1.17l1.98-.33.62-3.36q.06-.24.23-.37t.43-.13h1.54v3.88h3.29v2.11h-3.29v6.67q0 .58.28.9t.77.32q.28 0 .47-.06.18-.07.32-.14t.25-.14q.1-.06.21-.06.13 0 .22.06.08.07.18.2l.89 1.44q-.65.54-1.49.82-.84.27-1.74.27m4.92-12.5h2.97v12.31h-2.97zm3.38-3.59q0 .38-.15.72-.16.34-.42.59t-.6.4q-.35.15-.75.15-.38 0-.72-.15-.35-.15-.6-.4t-.4-.59-.15-.72q0-.4.15-.74.15-.35.4-.6.25-.26.6-.41.34-.15.72-.15.4 0 .75.15.34.15.6.41.26.25.42.6.15.34.15.74m8.07 3.4q1.36 0 2.49.44 1.12.44 1.92 1.26.79.82 1.23 1.99.43 1.18.43 2.63 0 1.46-.43 2.64-.44 1.18-1.23 2-.8.83-1.92 1.28-1.13.44-2.49.44-1.38 0-2.51-.44-1.13-.45-1.93-1.28-.8-.82-1.23-2-.44-1.18-.44-2.64 0-1.45.44-2.63.43-1.17 1.23-1.99t1.93-1.26 2.51-.44m0 10.4q1.53 0 2.27-1.03t.74-3.03q0-1.99-.74-3.03-.74-1.05-2.27-1.05-1.56 0-2.31 1.05t-.75 3.03.75 3.02 2.31 1.04m10.9-9.67.21.97q.37-.37.78-.69.42-.32.88-.54t.99-.35q.53-.12 1.15-.12 1.01 0 1.79.34t1.3.96.79 1.47q.27.86.27 1.89v7.84h-2.96v-7.84q0-1.12-.52-1.74-.51-.62-1.57-.62-.77 0-1.44.35t-1.27.95v8.9h-2.96v-12.31h1.81q.57 0 .75.54"/></svg>